<svg version="1.1" viewBox="0.0 0.0 377.9527559055118 11.338582677165354" fill="none" stroke="none" stroke-linecap="square" stroke-miterlimit="10" xmlns:xlink="http://www.w3.org/1999/xlink" xmlns="http://www.w3.org/2000/svg"><clipPath id="p.0"><path d="m0 0l377.95276 0l0 11.338583l-377.95276 0l0 -11.338583z" clip-rule="nonzero"/></clipPath><g clip-path="url(#p.0)"><path fill="#000000" fill-opacity="0.0" d="m0 0l377.95276 0l0 11.338583l-377.95276 0z" fill-rule="evenodd"/><path fill="#ff9900" d="m1.9055119 5.6692915l0 0c0 -2.5135481 2.0376332 -4.5511813 4.551181 -4.5511813l365.03937 0c1.2070618 0 2.3646545 0.47949815 3.2181702 1.3330102c0.8535156 0.85351205 1.3330078 2.0111227 1.3330078 3.2181711l0 0l0 0c0 2.513548 -2.0376282 4.551181 -4.551178 4.551181l-365.03937 0c-2.5135477 0 -4.551181 -2.037633 -4.551181 -4.551181z" fill-rule="evenodd"/><path stroke="#ff9900" stroke-width="1.0" stroke-linejoin="round" stroke-linecap="butt" d="m1.9055119 5.6692915l0 0c0 -2.5135481 2.0376332 -4.5511813 4.551181 -4.5511813l365.03937 0c1.2070618 0 2.3646545 0.47949815 3.2181702 1.3330102c0.8535156 0.85351205 1.3330078 2.0111227 1.3330078 3.2181711l0 0l0 0c0 2.513548 -2.0376282 4.551181 -4.551178 4.551181l-365.03937 0c-2.5135477 0 -4.551181 -2.037633 -4.551181 -4.551181z" fill-rule="evenodd"/></g></svg>