<svg version="1.1" viewBox="0.0 0.0 377.9527559055118 11.338582677165354" fill="none" stroke="none" stroke-linecap="square" stroke-miterlimit="10" xmlns:xlink="http://www.w3.org/1999/xlink" xmlns="http://www.w3.org/2000/svg"><clipPath id="p.0"><path d="m0 0l377.95276 0l0 11.338583l-377.95276 0l0 -11.338583z" clip-rule="nonzero"/></clipPath><g clip-path="url(#p.0)"><path fill="#000000" fill-opacity="0.0" d="m0 0l377.95276 0l0 11.338583l-377.95276 0z" fill-rule="evenodd"/><path fill="#ffffff" d="m342.15747 5.669289l0 0c0 -2.513548 2.0376282 -4.551181 4.551178 -4.551181l24.787415 0c1.2070618 0 2.3646545 0.47949803 3.2181702 1.3330101c0.8535156 0.85351205 1.3330078 2.011123 1.3330078 3.218171l0 0l0 0c0 2.5135484 -2.0376282 4.5511813 -4.551178 4.5511813l-24.787415 0l0 0c-2.5135498 0 -4.551178 -2.037633 -4.551178 -4.5511813z" fill-rule="evenodd"/><path stroke="#ffffff" stroke-width="1.0" stroke-linejoin="round" stroke-linecap="butt" d="m342.15747 5.669289l0 0c0 -2.513548 2.0376282 -4.551181 4.551178 -4.551181l24.787415 0c1.2070618 0 2.3646545 0.47949803 3.2181702 1.3330101c0.8535156 0.85351205 1.3330078 2.011123 1.3330078 3.218171l0 0l0 0c0 2.5135484 -2.0376282 4.5511813 -4.551178 4.5511813l-24.787415 0l0 0c-2.5135498 0 -4.551178 -2.037633 -4.551178 -4.5511813z" fill-rule="evenodd"/><path fill="#ffffff" d="m316.1391 1.1181798l39.55905 0l0 9.102362l-39.55905 0z" fill-rule="evenodd"/><path stroke="#ffffff" stroke-width="1.0" stroke-linejoin="round" stroke-linecap="butt" d="m316.1391 1.1181798l39.55905 0l0 9.102362l-39.55905 0z" fill-rule="evenodd"/><path fill="#ff9900" d="m1.9055119 5.6692915l0 0c0 -2.5135481 2.0376332 -4.5511813 4.551181 -4.5511813l312.15747 0c1.2070618 0 2.3646545 0.47949815 3.2181702 1.3330102c0.8535156 0.85351205 1.3330078 2.0111227 1.3330078 3.2181711l0 0l0 0c0 2.513548 -2.0376282 4.551181 -4.551178 4.551181l-312.15747 0c-2.5135477 0 -4.551181 -2.037633 -4.551181 -4.551181z" fill-rule="evenodd"/><path stroke="#ff9900" stroke-width="1.0" stroke-linejoin="round" stroke-linecap="butt" d="m1.9055119 5.6692915l0 0c0 -2.5135481 2.0376332 -4.5511813 4.551181 -4.5511813l312.15747 0c1.2070618 0 2.3646545 0.47949815 3.2181702 1.3330102c0.8535156 0.85351205 1.3330078 2.0111227 1.3330078 3.2181711l0 0l0 0c0 2.513548 -2.0376282 4.551181 -4.551178 4.551181l-312.15747 0c-2.5135477 0 -4.551181 -2.037633 -4.551181 -4.551181z" fill-rule="evenodd"/></g></svg>