<svg version="1.1" viewBox="0.0 0.0 755.9055118110236 755.9055118110236" fill="none" stroke="none" stroke-linecap="square" stroke-miterlimit="10" xmlns:xlink="http://www.w3.org/1999/xlink" xmlns="http://www.w3.org/2000/svg"><clipPath id="p.0"><path d="m0 0l755.9055 0l0 755.9055l-755.9055 0l0 -755.9055z" clip-rule="nonzero"/></clipPath><g clip-path="url(#p.0)"><path fill="#000000" fill-opacity="0.0" d="m0 0l755.9055 0l0 755.9055l-755.9055 0z" fill-rule="evenodd"/><path fill="#0097a7" d="m754.01874 377.9529l0 0c0 207.6954 -168.37036 376.06583 -376.0658 376.06583q-188.0329 0 -376.0658 0q0 -188.0329 0 -376.06583l0 0c0 -207.6954 168.37039 -376.0658 376.0658 -376.0658l0 0c207.69543 0 376.0658 168.37039 376.0658 376.0658z" fill-rule="evenodd"/><path fill="#f3f3f3" d="m34.21738 379.50308l0 0c0 -189.05522 153.25954 -342.31476 342.31476 -342.31476l0 0c90.787506 0 177.8566 36.065197 242.05307 100.26166c64.19647 64.19647 100.26166 151.26556 100.26166 242.0531l0 0c0 189.0552 -153.25952 342.31473 -342.31473 342.31473l0 0c-189.05522 0 -342.31476 -153.25952 -342.31476 -342.31473zm242.11923 0c0 55.336456 44.85907 100.195526 100.195526 100.195526c55.336456 0 100.195526 -44.85907 100.195526 -100.195526c0 -55.336487 -44.85907 -100.195526 -100.195526 -100.195526l0 0c-55.336456 0 -100.195526 44.85904 -100.195526 100.195526z" fill-rule="evenodd"/><path stroke="#f3f3f3" stroke-width="1.0" stroke-linejoin="round" stroke-linecap="butt" d="m34.21738 379.50308l0 0c0 -189.05522 153.25954 -342.31476 342.31476 -342.31476l0 0c90.787506 0 177.8566 36.065197 242.05307 100.26166c64.19647 64.19647 100.26166 151.26556 100.26166 242.0531l0 0c0 189.0552 -153.25952 342.31473 -342.31473 342.31473l0 0c-189.05522 0 -342.31476 -153.25952 -342.31476 -342.31473zm242.11923 0c0 55.336456 44.85907 100.195526 100.195526 100.195526c55.336456 0 100.195526 -44.85907 100.195526 -100.195526c0 -55.336487 -44.85907 -100.195526 -100.195526 -100.195526l0 0c-55.336456 0 -100.195526 44.85904 -100.195526 100.195526z" fill-rule="evenodd"/><path fill="#f3f3f3" d="m34.447483 381.265l121.7312 170.28955l-121.7312 170.28955z" fill-rule="evenodd"/><path stroke="#f3f3f3" stroke-width="1.0" stroke-linejoin="round" stroke-linecap="butt" d="m34.447483 381.265l121.7312 170.28955l-121.7312 170.28955z" fill-rule="evenodd"/></g></svg>